<svg viewBox="0 0 32 35" fill="currentColor" xmlns="http://www.w3.org/2000/svg"><path d="M13.42 25.34C6.56004 25.34 0.97998 19.76 0.97998 12.9C0.97998 6.03999 6.56004 0.459991 13.42 0.459991C20.28 0.459991 25.86 6.03999 25.86 12.9C25.87 19.76 20.28 25.34 13.42 25.34ZM13.42 2.44999C7.66004 2.44999 2.97998 7.13999 2.97998 12.89C2.97998 18.64 7.66004 23.33 13.42 23.33C19.18 23.33 23.86 18.64 23.86 12.89C23.86 7.13999 19.18 2.44999 13.42 2.44999Z" fill="currentColor"/><path d="M30.35 34.4C30.07 34.4 29.7899 34.28 29.5899 34.05L19.75 22.53C19.39 22.11 19.44 21.48 19.86 21.12C20.28 20.76 20.91 20.81 21.27 21.23L31.11 32.75C31.47 33.17 31.42 33.8 31 34.16C30.81 34.32 30.58 34.4 30.35 34.4Z" fill="currentColor"/></svg>